<svg width="406" height="68" viewBox="0 0 406 68" fill="none" xmlns="http://www.w3.org/2000/svg">
<path d="M361.537 66.7408L370.402 7.9082H381.04L376.043 40.8706L391.356 25.6386H405.54L385.714 44.8196L399.979 66.7408H387.246L375.076 47.4792L372.175 66.7408H361.537Z" fill="#fff"/>
<path d="M358.314 55.9414C354.365 63.3559 346.306 67.9497 337.279 67.9497C323.659 67.9497 314.472 57.6338 316.406 44.739C318.179 32.9725 328.334 24.4297 340.584 24.4297C349.126 24.4297 356.219 28.6205 359.523 35.4709L349.691 40.5482C348.079 36.5992 344.533 34.262 340.1 34.262C333.894 34.262 328.575 39.0169 327.608 45.545C326.48 52.6371 330.993 58.1174 337.763 58.1174C342.598 58.1174 347.031 55.2161 349.046 50.7835L358.314 55.9414Z" fill="#fff"/>
<path d="M303.057 13.1466C303.541 9.51998 306.603 7.02161 310.311 7.02161C314.34 7.02161 317.08 9.92294 316.516 13.7914C316.033 17.3375 312.889 19.9164 309.102 19.9164C305.072 19.9164 302.412 17.0151 303.057 13.1466ZM296.449 66.7407L302.654 25.6385H313.292L307.087 66.7407H296.449Z" fill="#fff"/>
<path d="M278.425 66.7408L287.291 7.9082H297.929L289.064 66.7408H278.425Z" fill="#fff"/>
<path fill-rule="evenodd" clip-rule="evenodd" d="M221.41 16.692C219.481 11.0602 219.503 4.7521 222.72 0L231.522 5.77869C230.855 6.7637 230.465 8.66997 230.827 11.011C236.413 8.67833 241.351 8.0982 242.988 8.0982C244.551 8.0982 248.874 8.27076 253 9.69284C256.985 11.0664 262.823 14.4513 262.823 21.7714C262.823 27.5528 259.096 30.9321 255.487 32.529C252.199 33.9842 248.559 34.2613 246.144 34.1421C237.8 34.1012 231.298 30.6478 226.896 25.8813C223.316 29.4739 220.509 34.8882 220.509 43.258C220.509 45.6089 221.319 49.3096 223.646 52.2935C225.783 55.0337 229.498 57.5823 236.377 57.5823C242.09 57.5823 246.764 54.572 251.091 49.6719C244.948 50.0177 239.706 48.1357 236.855 46.3545L242.52 37.5569C243.713 38.3019 247.017 39.596 251.015 39.2324C254.536 38.9121 258.943 37.2806 263.164 32.0263C263.38 31.7131 263.595 31.4087 263.809 31.1149L263.847 31.1418C263.851 31.1356 263.856 31.1295 263.86 31.1234L264.13 31.3176L264.137 31.3084L266.126 32.7452L272.417 37.17L272.366 37.2395L272.404 37.2665C272.402 37.2695 272.4 37.2725 272.397 37.2755L272.667 37.4703C268.225 43.4339 267.906 48.3902 268.703 51.9807C269.56 55.8428 271.812 58.5532 272.893 59.4475L266.092 67.4263C263.731 65.475 260.688 61.6816 259.017 56.5716C253.705 62.5609 246.408 68 236.377 68C226.33 68 219.466 64.0376 215.256 58.6389C211.236 53.484 209.93 47.418 209.93 43.258C209.93 30.4624 215.076 22.0344 221.41 16.692ZM236.065 20.165C238.59 22.2998 242.301 23.7337 246.605 23.7337C247.649 23.7209 249.83 23.6116 251.151 23.0268C251.76 22.7572 252.014 22.5093 252.101 22.3967L252.105 22.3918C252.142 22.3441 252.245 22.2137 252.245 21.7714C252.245 21.2783 252.132 20.431 249.506 19.5257C247.02 18.6689 244.057 18.5173 242.974 18.5173C242.982 18.5173 242.992 18.5162 242.974 18.5173C242.89 18.5227 242.508 18.547 241.833 18.6484C241.077 18.7619 240.072 18.9546 238.908 19.263C238.022 19.4974 237.063 19.7939 236.065 20.165Z" fill="#92D736"/>
<path d="M201.835 25.6386L195.71 66.7408H185.636L186.12 63.3559C182.332 66.2572 177.658 67.9497 172.741 67.9497C160.491 67.9497 151.868 57.4727 153.802 44.739C155.495 33.1337 165.408 24.4297 177.013 24.4297C182.896 24.4297 187.732 26.6863 191.117 30.3935L191.761 25.6386H201.835ZM164.924 45.7867C163.876 52.7983 168.309 58.1174 175.079 58.1174C181.607 58.1174 187.087 53.2818 188.054 46.5927C189.102 39.5811 184.669 34.262 177.899 34.262C171.371 34.262 165.891 39.0975 164.924 45.7867Z" fill="#fff"/>
<path d="M116.573 61.2605L122.778 54.1684C126.002 57.2309 129.306 58.9233 132.369 58.9233C135.029 58.9233 136.56 57.7144 136.882 55.619C137.205 53.6042 136.157 52.3953 131.966 50.1387L130.435 49.2522C123.504 45.4644 120.844 41.5153 121.731 35.9544C122.698 28.9429 128.581 24.4297 136.882 24.4297C142.282 24.4297 147.843 26.3639 151.066 29.3458L145.344 36.9215C142.685 34.5844 140.186 33.4561 137.527 33.4561C134.787 33.4561 132.933 34.6649 132.691 36.5992C132.369 38.5334 133.82 40.0647 138.252 42.2407L139.461 42.8854C146.231 46.2703 148.89 50.5417 148.004 56.3444C146.956 63.5171 141.315 67.9497 133.175 67.9497C126.728 67.9497 119.877 65.2095 116.573 61.2605Z" fill="#fff"/>
<path d="M100.162 66.7408L109.027 7.9082H119.665L110.8 66.7408H100.162Z" fill="#fff"/>
<path d="M51.9616 44.6584C53.7346 32.9725 63.8893 24.4297 76.22 24.4297C89.7595 24.4297 99.0277 34.7455 97.0129 47.6404C95.2398 59.4069 85.0852 67.9497 72.8351 67.9497C59.2149 67.9497 49.9468 57.5532 51.9616 44.6584ZM63.164 45.545C62.0357 52.6371 66.5489 58.1174 73.3186 58.1174C79.6855 58.1174 85.0046 53.2818 85.8911 46.6732C86.8582 39.7423 82.345 34.262 75.7364 34.262C69.4502 34.262 64.1311 38.9364 63.164 45.545Z" fill="#fff"/>
<path d="M0.0673828 66.7408L8.93257 7.9082H27.7912C41.7338 7.9082 49.9542 15.0809 48.5035 24.8326C47.617 30.3935 43.9903 34.4232 37.7847 36.5992V36.8409C43.9903 39.5005 47.1334 45.0614 46.1663 51.5894C44.7963 60.7769 36.0923 66.7408 24.1646 66.7408H0.0673828ZM16.6695 32.3278H26.0182C32.2238 32.3278 36.0117 29.91 36.6564 25.4774C37.3818 20.803 33.9163 17.5793 27.3077 17.5793H18.9261L16.6695 32.3278ZM12.9622 56.9891H22.7139C29.4031 56.9891 33.5939 54.4101 34.2386 49.8969C34.964 44.9808 30.9343 41.5959 24.2452 41.5959H15.2994L12.9622 56.9891Z" fill="#fff"/>
</svg>